<?xml version="1.0" standalone="no"?>
<!DOCTYPE svg PUBLIC "-//W3C//DTD SVG 20010904//EN"
 "http://www.w3.org/TR/2001/REC-SVG-20010904/DTD/svg10.dtd">
<svg version="1.0" xmlns="http://www.w3.org/2000/svg"
 width="97.000000pt" height="97.000000pt" viewBox="0 0 97.000000 97.000000"
 preserveAspectRatio="xMidYMid meet">
<metadata>
Created by potrace 1.11, written by Peter Selinger 2001-2013
</metadata>
<g transform="translate(0.000000,97.000000) scale(0.100000,-0.100000)"
fill="#000000" stroke="none">
<path d="M612 898 c3 -29 6 -33 33 -33 27 0 30 4 33 33 3 31 2 32 -33 32 -35
0 -36 -1 -33 -32z"/>
<path d="M259 859 c-6 -3 -9 -10 -7 -15 1 -5 -12 -10 -30 -12 -33 -3 -33 -4
-30 -49 3 -42 6 -47 31 -50 17 -2 27 1 28 9 1 7 2 22 3 33 1 14 9 19 31 20 27
0 30 3 33 36 3 32 1 35 -23 35 -14 0 -30 -3 -36 -7z"/>
<path d="M421 853 c-5 -9 -6 -24 -4 -34 4 -13 0 -19 -11 -19 -9 0 -17 -6 -18
-12 0 -7 -2 -17 -3 -23 -2 -5 -3 -16 -4 -23 -1 -9 -11 -12 -28 -10 -27 3 -28
2 -33 -57 -5 -54 -6 -58 -17 -38 -7 12 -13 31 -13 42 0 17 -6 21 -35 21 -32 0
-35 -2 -35 -30 0 -18 6 -33 15 -36 33 -13 57 -76 46 -125 0 -3 -13 -6 -28 -5
-24 1 -28 -3 -31 -31 -2 -21 -9 -33 -18 -33 -9 0 -14 -7 -12 -16 3 -18 54 -29
63 -13 9 14 25 11 25 -4 0 -17 -45 -60 -66 -63 -22 -3 -27 -11 -21 -27 4 -10
15 -13 33 -9 24 4 26 3 19 -14 -21 -50 0 -100 22 -52 10 21 11 19 11 -15 0
-21 5 -43 10 -50 6 -7 8 -18 4 -24 -4 -7 -7 -25 -6 -40 1 -15 3 -36 3 -45 2
-31 31 -21 31 10 0 19 5 29 15 29 8 0 15 -4 15 -9 0 -5 5 -6 10 -3 6 3 10 1
10 -4 0 -7 22 -10 55 -10 47 1 63 7 103 37 26 20 50 40 53 45 4 5 9 4 13 -2
11 -17 51 -13 70 8 10 11 18 40 20 72 2 31 9 57 18 63 25 18 26 40 4 64 -25
28 -30 88 -10 116 8 11 14 28 14 37 0 27 22 39 45 26 15 -9 21 -24 23 -52 5
-77 14 -113 33 -133 16 -18 17 -23 4 -36 -24 -23 -35 -63 -35 -122 0 -51 -2
-56 -30 -72 -62 -35 -23 -89 51 -68 26 7 61 55 58 78 -1 7 -1 37 0 66 1 46 6
58 35 88 19 19 33 40 32 47 -1 7 -16 26 -34 44 -29 29 -32 37 -32 93 0 103
-35 148 -108 141 -13 -2 -28 2 -35 7 -7 5 -47 8 -89 7 -58 -1 -78 2 -78 11 0
7 -9 18 -20 24 -28 15 -17 31 54 83 85 62 83 77 -9 77 -50 0 -82 6 -108 19
-33 17 -38 17 -46 4z m112 -54 c26 -1 47 -3 47 -5 0 -1 -22 -19 -49 -39 -45
-35 -48 -40 -47 -79 1 -25 6 -40 13 -39 7 2 15 -6 18 -17 5 -16 15 -18 89 -18
96 2 115 -5 91 -32 -9 -10 -18 -27 -20 -37 -1 -10 -9 -16 -16 -14 -61 16 -91
-7 -51 -40 33 -26 27 -39 -18 -39 -22 0 -41 -4 -41 -10 -1 -5 -2 -18 -2 -27
-1 -21 -16 -33 -32 -27 -7 3 -10 17 -7 35 3 19 0 34 -8 39 -24 15 -40 -1 -40
-40 l0 -38 -37 8 c-36 9 -63 -1 -63 -21 0 -10 34 -29 62 -34 30 -6 30 -8 3
-38 -29 -30 -32 -55 -8 -64 15 -6 45 20 56 50 3 7 15 0 32 -20 32 -37 65 -44
65 -13 0 24 6 25 28 4 15 -15 14 -18 -4 -30 -10 -8 -26 -20 -34 -27 -74 -60
-97 -73 -130 -72 -47 2 -101 25 -79 34 10 4 15 17 15 34 -1 15 4 33 11 39 21
17 15 32 -27 73 -22 21 -40 42 -40 45 0 3 9 16 20 28 13 13 21 37 22 59 0 21
5 46 10 56 5 10 6 26 2 35 -4 9 -9 54 -10 100 l-1 82 33 0 c28 0 33 3 32 23
-1 38 2 48 12 42 6 -3 12 1 15 9 3 9 7 23 10 32 4 12 9 14 18 5 8 -6 35 -12
60 -12z m106 -424 c19 -33 20 -38 5 -60 -9 -13 -13 -29 -9 -35 3 -5 0 -10 -9
-10 -8 0 -16 5 -18 11 -2 6 -19 12 -37 14 -33 3 -67 24 -43 26 15 2 20 3 55
12 30 8 38 41 11 51 -8 3 -12 10 -9 16 12 20 33 10 54 -25z m-296 -140 c-7
-21 -13 -19 -13 6 0 11 4 18 10 14 5 -3 7 -12 3 -20z"/>
<path d="M125 668 c1 -35 -5 -75 -12 -90 -7 -15 -13 -31 -12 -35 1 -4 1 -34 0
-66 -1 -52 -5 -62 -36 -94 -19 -20 -35 -39 -35 -43 0 -4 16 -23 35 -43 31 -31
35 -43 36 -89 1 -29 1 -59 0 -66 -6 -43 64 -96 111 -84 31 8 34 72 4 72 -24 0
-34 24 -37 85 -2 61 -11 88 -36 114 -12 11 -11 16 6 33 12 10 21 26 22 36 0 9
2 26 4 37 2 11 7 40 10 64 5 31 12 45 25 48 22 6 33 33 24 57 -6 16 -21 20
-56 17 -20 -2 -21 3 -19 67 1 34 -2 42 -16 42 -16 0 -18 -9 -18 -62z"/>
</g>
</svg>
